# xmcd
#
# Track frame offsets: 
#        150
#        30282
#        54300
#        81285
#        104322
#        133220
#        157110
#        184555
#        212032
#        228797
#
# Disc length: 3392 seconds
#
# Revision: 0
# Processed by: cddbd v1.5.2PL0 Copyright (c) Steve Scherf et al.
# Submitted via: ExactAudioCopy v1.0b3
#
DISCID=7a0d3e0a
DTITLE=Che Linh - Hat Cho Nguoi Tinh Phu 1
DYEAR=1992
DGENRE=
TTITLE0=Muoi nam tinh cu
TTITLE1=Tinh chet theo mua dong
TTITLE2=Giot le sau
TTITLE3=Han tinh
TTITLE4=Mot lan cuoi
TTITLE5=Nghen ngao
TTITLE6=Sao danh xa anh
TTITLE7=Tinh phu
TTITLE8=Thanh pho mua bay
TTITLE9=Loi cho nguoi tinh phu
EXTD=
EXTT0=
EXTT1=
EXTT2=
EXTT3=
EXTT4=
EXTT5=
EXTT6=
EXTT7=
EXTT8=
EXTT9=
PLAYORDER=
